{"title":"Game of Thrones S03E04 And Now His Watch Is Ended 720p WEB-DL x2","uid":8401258,"size":441640898,"categoryP":"video","categoryS":"hd___tv_shows","magnet":"?xt=urn:btih:f647d93b414654c42ee04970803f0d09bb5c3d3a&amp;dn=Game+of+Thrones+S03E04+And+Now+His+Watch+Is+Ended+720p+WEB-DL+x2&amp;tr=udp%3A%2F%2Ftracker.openbittorrent.com%3A80&amp;tr=udp%3A%2F%2Fopen.demonii.com%3A1337&amp;tr=udp%3A%2F%2Ftracker.coppersurfer.tk%3A6969&amp;tr=udp%3A%2F%2Fexodus.desync.com%3A6969","seeders":2,"leechers":0,"uploader":"3xmvz","files":1,"time":1366704677,"description":"Format : MPEG-4\nFormat profile : Base Media\nCodec ID : isom\nFile size : 421 MiB\nDuration : 53mn 23s\nOverall bit rate mode : Variable\nOverall bit rate : 1 103 Kbps\n\nVideo\nID : 1\nFormat : AVC\nFormat/Info : Advanced Video Codec\nFormat profile : High &lt;a class=&quot;__cf_email__&quot; href=&quot;/cdn-cgi/l/email-protection&quot; data-cfemail=&quot;f7c6c7b7bbc3d9c6&quot;&gt;[email&amp;#160;protected]&lt;/a&gt;&lt;script cf-hash='f9e31' type=&quot;text/javascript&quot;&gt;\n/* &lt;![CDATA[ */!function(){try{var t=&quot;currentScript&quot;in document?document.currentScript:function(){for(var t=document.getElementsByTagName(&quot;script&quot;),e=t.length;e--;)if(t[e].getAttribute(&quot;cf-hash&quot;))return t[e]}();if(t&amp;&amp;t.previousSibling){var e,r,n,i,c=t.previousSibling,a=c.getAttribute(&quot;data-cfemail&quot;);if(a){for(e=&quot;&quot;,r=parseInt(a.substr(0,2),16),n=2;a.length-n;n+=2)i=parseInt(a.substr(n,2),16)^r,e+=String.fromCharCode(i);e=document.createTextNode(e),c.parentNode.replaceChild(e,c)}}}catch(u){}}();/* ]]&gt; */&lt;/script&gt;\nFormat settings, CABAC : Yes\nFormat settings, ReFrames : 4 frames\nCodec ID : avc1\nCodec ID/Info : Advanced Video Coding\nDuration : 53mn 23s\nBit rate : 909 Kbps\nMaximum bit rate : 14.4 Mbps\nWidth : 1 280 pixels\nHeight : 720 pixels\nDisplay aspect ratio : 16:9\nFrame rate mode : Constant\nFrame rate : 23.976 fps\nColor space : YUV\nChroma subsampling : 4:2:0\nBit depth : 10 bits\nScan type : Progressive\nBits/(Pixel*Frame) : 0.041\nStream size : 348 MiB (83%)\n\nAudio\nID : 2\nFormat : AAC\nFormat/Info : Advanced Audio Codec\nFormat profile : LC\nCodec ID : 40\nDuration : 53mn 23s\nBit rate mode : Variable\nBit rate : 192 Kbps\nMaximum bit rate : 262 Kbps\nChannel(s) : 6 channels\nChannel positions : Front: L C R, Side: L R, LFE\nSampling rate : 48.0 KHz\nCompression mode : Lossy\nStream size : 72.0 MiB (17%)\nLanguage : English","torrent":{"xt":"urn:btih:f647d93b414654c42ee04970803f0d09bb5c3d3a","amp;dn":"Game+of+Thrones+S03E04+And+Now+His+Watch+Is+Ended+720p+WEB-DL+x2","amp;tr":["udp%3A%2F%2Ftracker.openbittorrent.com%3A80","udp%3A%2F%2Fopen.demonii.com%3A1337","udp%3A%2F%2Ftracker.coppersurfer.tk%3A6969","udp%3A%2F%2Fexodus.desync.com%3A6969"],"infoHash":"f647d93b414654c42ee04970803f0d09bb5c3d3a","infoHashBuffer":{"type":"Buffer","data":[246,71,217,59,65,70,84,196,46,224,73,112,128,63,13,9,187,92,61,58]},"announce":[],"urlList":[]}}